<svg height="512pt" viewBox="0 0 512 512.006" width="512pt" xmlns="http://www.w3.org/2000/svg" xmlns:xlink="http://www.w3.org/1999/xlink"><linearGradient id="a" gradientUnits="userSpaceOnUse" x1=".002878243" x2="511.958234239" y1="256.001279241" y2="256.001279241"><stop offset="0" stop-color="#00f2fe"/><stop offset=".0208" stop-color="#03effe"/><stop offset=".2931" stop-color="#24d2fe"/><stop offset=".5538" stop-color="#3cbdfe"/><stop offset=".7956" stop-color="#4ab0fe"/><stop offset="1" stop-color="#4facfe"/></linearGradient><path d="m509.792969 319.097656c-7.511719 59.699219-33.085938 114.59375-73.953125 158.757813-.03125.027343-.058594.058593-.085938.089843l-25.980468 27.730469c-3.9375 4.203125-9.265626 6.328125-14.601563 6.328125-4.902344 0-9.8125-1.792968-13.671875-5.40625-8.058594-7.554687-8.472656-20.210937-.917969-28.273437l25.941407-27.6875c35.132812-37.984375 57.121093-85.195313 63.582031-136.53125 1.378906-10.957031 11.378906-18.726563 22.339843-17.347657 10.960938 1.378907 18.726563 11.382813 17.347657 22.339844zm-77.761719-20.832031.101562-187.613281c0-.199219-.003906-.398438-.007812-.597656-.15625-5.28125 1.722656-10.246094 5.28125-13.984376 3.601562-3.777343 8.558594-5.941406 13.957031-6.101562 5.4375-.15625 10.566407 1.730469 14.4375 5.316406 3.75 3.472656 5.921875 8.207032 6.132813 13.355469l.023437 108.347656c0 11.042969 8.957031 19.996094 20 19.996094h.003907c11.046874 0 20-8.957031 19.996093-20.003906l-.019531-108.6875c0-.191407-.003906-.386719-.011719-.582031-.46875-16.054688-7.195312-30.890626-18.9375-41.769532-11.613281-10.757812-26.8125-16.425781-42.792969-15.957031-16 .46875-30.824218 7.03125-41.742187 18.484375s-16.707031 26.511719-16.324219 42.433594l-.070312 134.480468c-21.875-7.636718-47.207032-2.195312-63.957032 15.90625l-71.410156 77.746094-72.640625-77.800781c-16.726562-18.078125-42.082031-23.503906-63.96875-15.828125l-.070312-134.503906c.382812-16.003906-5.699219-31.160156-17.144531-42.710938-11.171876-11.273437-26.09375-17.742187-42.019532-18.207031-16.066406-.472656-31.164062 5.28125-42.542968 16.191406-11.261719 10.796875-17.722657 25.550781-18.191407 41.535157-.007812.195312-.007812.390624-.007812.585937l-.0312502 168.820313c-1.6406248 75.324218 25.0351562 146.609374 75.1289062 200.738281.027344.03125.054687.058593.082031.089843l25.984375 27.730469c3.9375 4.203125 9.261719 6.328125 14.597657 6.328125 4.902343 0 9.816406-1.792968 13.671874-5.40625 8.0625-7.550781 8.472657-20.210937.921876-28.269531l-25.941407-27.6875c-43.027343-46.515625-65.914062-107.894531-64.449219-172.851563.003907-.148437.007813-.296874.007813-.445312l.027344-168.703125c.214843-5.332031 2.296875-10.152344 5.882812-13.585937 2.53125-2.429688 6.957031-5.292969 13.6875-5.082032 5.535157.160156 10.921875 2.484375 14.777344 6.378906 3.738281 3.769532 5.714844 8.640626 5.566406 13.707032-.007812.199218-.011719.398437-.011719.597656l.101563 188.585938c-.109375 2.328124-.074219 4.664062.089844 6.988281.011719.167969.019531.339843.039062.507812 1.015625 12.984375 6.222657 25.730469 15.734375 36.007813.035156.035156.066406.070312.097656.105468l68.359376 72.835938c7.5625 8.054688 20.21875 8.453125 28.273437.894531 8.054687-7.558593 8.457031-20.21875.894531-28.273437l-68.300781-72.769532c-3.113281-3.382812-4.820313-7.5625-5.183594-11.824218v-3.375c.394531-4.8125 2.5-9.496094 6.3125-13.027344 8.097657-7.488281 20.777344-7 28.324219 1.160156l102.222656 109.484375c8.367188 9.046875 12.714844 20.804688 12.242188 33.117188-.476563 12.308593-5.71875 23.699219-14.765625 32.070312l-15.320313 14.179688c-8.109375 7.503906-8.597656 20.15625-1.09375 28.265625 3.941406 4.257812 9.304688 6.417968 14.683594 6.417968 4.859375 0 9.734375-1.761718 13.582031-5.324218l15.324219-14.183594c34.855469-32.253906 36.964844-86.855469 4.648438-121.773438l-2.203126-2.359374 73.441407-79.957032c7.492187-8.09375 20.171875-8.585937 28.265625-1.09375 3.507812 3.242188 5.683594 7.539063 6.253906 12.226563l-.003906 4.863281c-.496094 4.15625-2.257813 8.039062-5.15625 11.171875-.082032.09375-.167969.183594-.25.277344l-43.527344 48.832031c-7.347656 8.246094-6.621094 20.890625 1.625 28.242188 3.8125 3.398437 8.566406 5.066406 13.300781 5.066406 5.503907 0 10.988281-2.257813 14.9375-6.691406l43.410157-48.707032c11.484374-12.492187 16.640624-28.589844 15.664062-44.332031zm-277.015625-152.292969v-75.992187c0-15.324219 8.546875-29.054688 22.304687-35.832031l61-30.054688c11.082032-5.457031 24.316407-5.457031 35.398438 0l61 30.054688c13.757812 6.777343 22.308594 20.507812 22.308594 35.832031v75.988281c0 15.320312-8.546875 29.050781-22.304688 35.832031l-61 30.058594c-5.542968 2.730469-11.621094 4.097656-17.703125 4.097656s-12.160156-1.367187-17.703125-4.097656l-60.996094-30.058594c-13.757812-6.777343-22.304687-20.507812-22.304687-35.828125zm40 0 41.003906 20.175782v-56.039063l-41.003906-19.597656zm122.023437-.050781-.011718-55.382813-41.003906 19.574219v56.003907zm-97.441406-88 36.425782 17.410156 36.480468-17.414062-36.460937-17.9375zm0 0" fill="url(#a)"/></svg>